<svg width="475" height="216" viewBox="0 0 475 216" fill="none" xmlns="http://www.w3.org/2000/svg">
<path opacity="0.28" d="M468.769 215.706H6.16261C2.73894 215.706 0 212.967 0 209.543C0 206.119 2.73894 203.38 6.16261 203.38H468.837C472.261 203.38 475 206.119 475 209.543C474.932 212.967 472.193 215.706 468.769 215.706Z" fill="#E7E7E7"/>
<path d="M448.706 152.436C448.706 126.964 429.397 106.011 404.404 103.615V97.8628H389.408V207.9H404.404V201.258C429.328 198.861 448.706 177.908 448.706 152.436ZM404.335 185.44V119.5C420.358 121.828 432.957 135.729 432.957 152.505C432.957 169.212 420.358 183.112 404.335 185.44Z" fill="#E7E7E7"/>
<path opacity="0.29" d="M404.336 103.615V97.8628H389.34V207.9H404.336V201.258C429.328 198.861 448.638 177.977 448.638 152.436C448.706 126.964 429.328 106.011 404.336 103.615ZM404.336 196.191V201.874H390.298V102.861H404.336V108.682C426.315 110.804 444.05 129.566 444.05 152.436C444.119 175.306 426.384 194.068 404.336 196.191Z" fill="#E7E7E7"/>
<path d="M448.706 152.436C448.706 126.964 429.397 106.011 404.404 103.615V97.8628H389.408V207.9H404.404V201.258C429.328 198.861 448.706 177.908 448.706 152.436ZM404.335 185.44V119.5C420.358 121.828 432.957 135.729 432.957 152.505C432.957 169.212 420.358 183.112 404.335 185.44Z" fill="#E7E7E7" stroke="white" stroke-width="4" stroke-miterlimit="10" stroke-linecap="round" stroke-linejoin="round"/>
<path d="M395.365 196.876H389.339H395.365Z" fill="#E7E7E7"/>
<path d="M395.365 196.876H389.339" stroke="white" stroke-width="3" stroke-miterlimit="10" stroke-linecap="round" stroke-linejoin="round"/>
<path d="M395.365 185.92H389.339H395.365Z" fill="#E7E7E7"/>
<path d="M395.365 185.92H389.339" stroke="white" stroke-width="3" stroke-miterlimit="10" stroke-linecap="round" stroke-linejoin="round"/>
<path d="M395.365 174.895H389.339H395.365Z" fill="#E7E7E7"/>
<path d="M395.365 174.895H389.339" stroke="white" stroke-width="3" stroke-miterlimit="10" stroke-linecap="round" stroke-linejoin="round"/>
<path d="M395.365 163.871H389.339H395.365Z" fill="#E7E7E7"/>
<path d="M395.365 163.871H389.339" stroke="white" stroke-width="3" stroke-miterlimit="10" stroke-linecap="round" stroke-linejoin="round"/>
<path d="M395.365 152.915H389.339H395.365Z" fill="#E7E7E7"/>
<path d="M395.365 152.915H389.339" stroke="white" stroke-width="3" stroke-miterlimit="10" stroke-linecap="round" stroke-linejoin="round"/>
<path d="M395.365 141.891H389.339H395.365Z" fill="#E7E7E7"/>
<path d="M395.365 141.891H389.339" stroke="white" stroke-width="3" stroke-miterlimit="10" stroke-linecap="round" stroke-linejoin="round"/>
<path d="M395.365 130.867H389.339H395.365Z" fill="#E7E7E7"/>
<path d="M395.365 130.867H389.339" stroke="white" stroke-width="3" stroke-miterlimit="10" stroke-linecap="round" stroke-linejoin="round"/>
<path d="M395.365 119.843H389.339H395.365Z" fill="#E7E7E7"/>
<path d="M395.365 119.843H389.339" stroke="white" stroke-width="3" stroke-miterlimit="10" stroke-linecap="round" stroke-linejoin="round"/>
<path d="M395.365 108.887H389.339H395.365Z" fill="#E7E7E7"/>
<path d="M395.365 108.887H389.339" stroke="white" stroke-width="3" stroke-miterlimit="10" stroke-linecap="round" stroke-linejoin="round"/>
<path d="M378.795 42.1939H356.13V207.626H378.795V42.1939Z" fill="#E7E7E7"/>
<path d="M378.795 42.1939H356.13V207.626H378.795V42.1939Z" fill="#E7E7E7"/>
<path opacity="0.29" d="M378.795 42.1938H368.935V207.626H378.795V42.1938Z" fill="#E7E7E7"/>
<path d="M378.795 42.1939H356.13V207.626H378.795V42.1939Z" fill="#E7E7E7" stroke="white" stroke-width="4" stroke-miterlimit="10" stroke-linecap="round" stroke-linejoin="round"/>
<path d="M364.004 190.918H356.13H364.004Z" fill="#E7E7E7"/>
<path d="M364.004 190.918H356.13" stroke="white" stroke-width="3" stroke-miterlimit="10" stroke-linecap="round" stroke-linejoin="round"/>
<path d="M360.992 198.793H356.13H360.992Z" fill="#E7E7E7"/>
<path d="M360.992 198.793H356.13" stroke="white" stroke-width="3" stroke-miterlimit="10" stroke-linecap="round" stroke-linejoin="round"/>
<path d="M364.004 175.169H356.13H364.004Z" fill="#E7E7E7"/>
<path d="M364.004 175.169H356.13" stroke="white" stroke-width="3" stroke-miterlimit="10" stroke-linecap="round" stroke-linejoin="round"/>
<path d="M360.992 183.044H356.13H360.992Z" fill="#E7E7E7"/>
<path d="M360.992 183.044H356.13" stroke="white" stroke-width="3" stroke-miterlimit="10" stroke-linecap="round" stroke-linejoin="round"/>
<path d="M364.004 159.42H356.13H364.004Z" fill="#E7E7E7"/>
<path d="M364.004 159.42H356.13" stroke="white" stroke-width="3" stroke-miterlimit="10" stroke-linecap="round" stroke-linejoin="round"/>
<path d="M360.992 167.295H356.13H360.992Z" fill="#E7E7E7"/>
<path d="M360.992 167.295H356.13" stroke="white" stroke-width="3" stroke-miterlimit="10" stroke-linecap="round" stroke-linejoin="round"/>
<path d="M364.004 143.603H356.13H364.004Z" fill="#E7E7E7"/>
<path d="M364.004 143.603H356.13" stroke="white" stroke-width="3" stroke-miterlimit="10" stroke-linecap="round" stroke-linejoin="round"/>
<path d="M360.992 151.478H356.13H360.992Z" fill="#E7E7E7"/>
<path d="M360.992 151.478H356.13" stroke="white" stroke-width="3" stroke-miterlimit="10" stroke-linecap="round" stroke-linejoin="round"/>
<path d="M364.004 127.854H356.13H364.004Z" fill="#E7E7E7"/>
<path d="M364.004 127.854H356.13" stroke="white" stroke-width="3" stroke-miterlimit="10" stroke-linecap="round" stroke-linejoin="round"/>
<path d="M360.992 135.729H356.13H360.992Z" fill="#E7E7E7"/>
<path d="M360.992 135.729H356.13" stroke="white" stroke-width="3" stroke-miterlimit="10" stroke-linecap="round" stroke-linejoin="round"/>
<path d="M364.004 112.105H356.13H364.004Z" fill="#E7E7E7"/>
<path d="M364.004 112.105H356.13" stroke="white" stroke-width="3" stroke-miterlimit="10" stroke-linecap="round" stroke-linejoin="round"/>
<path d="M360.992 119.98H356.13H360.992Z" fill="#E7E7E7"/>
<path d="M360.992 119.98H356.13" stroke="white" stroke-width="3" stroke-miterlimit="10" stroke-linecap="round" stroke-linejoin="round"/>
<path d="M364.004 96.3564H356.13H364.004Z" fill="#E7E7E7"/>
<path d="M364.004 96.3564H356.13" stroke="white" stroke-width="3" stroke-miterlimit="10" stroke-linecap="round" stroke-linejoin="round"/>
<path d="M360.992 104.231H356.13H360.992Z" fill="#E7E7E7"/>
<path d="M360.992 104.231H356.13" stroke="white" stroke-width="3" stroke-miterlimit="10" stroke-linecap="round" stroke-linejoin="round"/>
<path d="M364.004 80.6076H356.13H364.004Z" fill="#E7E7E7"/>
<path d="M364.004 80.6076H356.13" stroke="white" stroke-width="3" stroke-miterlimit="10" stroke-linecap="round" stroke-linejoin="round"/>
<path d="M360.992 88.482H356.13H360.992Z" fill="#E7E7E7"/>
<path d="M360.992 88.482H356.13" stroke="white" stroke-width="3" stroke-miterlimit="10" stroke-linecap="round" stroke-linejoin="round"/>
<path d="M364.004 64.8587H356.13H364.004Z" fill="#E7E7E7"/>
<path d="M364.004 64.8587H356.13" stroke="white" stroke-width="3" stroke-miterlimit="10" stroke-linecap="round" stroke-linejoin="round"/>
<path d="M360.992 72.7331H356.13H360.992Z" fill="#E7E7E7"/>
<path d="M360.992 72.7331H356.13" stroke="white" stroke-width="3" stroke-miterlimit="10" stroke-linecap="round" stroke-linejoin="round"/>
<path d="M364.004 49.1097H356.13H364.004Z" fill="#E7E7E7"/>
<path d="M364.004 49.1097H356.13" stroke="white" stroke-width="3" stroke-miterlimit="10" stroke-linecap="round" stroke-linejoin="round"/>
<path d="M360.992 56.9842H356.13H360.992Z" fill="#E7E7E7"/>
<path d="M360.992 56.9842H356.13" stroke="white" stroke-width="3" stroke-miterlimit="10" stroke-linecap="round" stroke-linejoin="round"/>
<path d="M323.058 82.1824H314.225V105.532H323.058V82.1824Z" fill="#E7E7E7"/>
<path opacity="0.25" d="M317.511 82.1824H314.225V105.532H317.511V82.1824Z" fill="#E7E7E7"/>
<path d="M323.058 82.1824H314.225V105.532H323.058V82.1824Z" fill="#E7E7E7" stroke="white" stroke-width="4" stroke-miterlimit="10" stroke-linecap="round" stroke-linejoin="round"/>
<path d="M320.661 105.6H316.621V116.898H320.661V105.6Z" fill="#E7E7E7"/>
<path d="M320.661 105.6H316.621V116.898H320.661V105.6Z" fill="#E7E7E7" stroke="white" stroke-width="4" stroke-miterlimit="10" stroke-linecap="round" stroke-linejoin="round"/>
<path d="M311.828 126.964L291.286 207.557L322.51 128.06L311.828 126.964Z" fill="#E7E7E7"/>
<path d="M311.828 126.964L291.286 207.557L322.51 128.06L311.828 126.964Z" fill="#E7E7E7" stroke="white" stroke-width="4" stroke-miterlimit="10" stroke-linecap="round" stroke-linejoin="round"/>
<path d="M325.523 126.964L346.065 207.557L314.909 128.06L325.523 126.964Z" fill="#E7E7E7"/>
<path d="M325.523 126.964L346.065 207.557L314.909 128.06L325.523 126.964Z" fill="#E7E7E7" stroke="white" stroke-width="4" stroke-miterlimit="10" stroke-linecap="round" stroke-linejoin="round"/>
<path d="M318.675 142.782C326.239 142.782 332.37 136.65 332.37 129.087C332.37 121.523 326.239 115.392 318.675 115.392C311.112 115.392 304.98 121.523 304.98 129.087C304.98 136.65 311.112 142.782 318.675 142.782Z" fill="#E7E7E7"/>
<path opacity="0.4" d="M308.815 129.087C308.815 122.171 313.951 116.488 320.592 115.529C319.976 115.461 319.36 115.392 318.675 115.392C311.143 115.392 304.98 121.555 304.98 129.087C304.98 136.619 311.143 142.782 318.675 142.782C319.291 142.782 319.976 142.713 320.592 142.645C313.951 141.686 308.815 136.003 308.815 129.087Z" fill="#E7E7E7"/>
<path d="M318.675 142.782C326.239 142.782 332.37 136.65 332.37 129.087C332.37 121.523 326.239 115.392 318.675 115.392C311.112 115.392 304.98 121.523 304.98 129.087C304.98 136.65 311.112 142.782 318.675 142.782Z" fill="#E7E7E7" stroke="white" stroke-width="4" stroke-miterlimit="10" stroke-linecap="round" stroke-linejoin="round"/>
<path d="M318.676 133.743C321.248 133.743 323.332 131.659 323.332 129.087C323.332 126.515 321.248 124.431 318.676 124.431C316.104 124.431 314.02 126.515 314.02 129.087C314.02 131.659 316.104 133.743 318.676 133.743Z" fill="#E7E7E7"/>
<path d="M318.676 133.743C321.248 133.743 323.332 131.659 323.332 129.087C323.332 126.515 321.248 124.431 318.676 124.431C316.104 124.431 314.02 126.515 314.02 129.087C314.02 131.659 316.104 133.743 318.676 133.743Z" fill="#E7E7E7" stroke="white" stroke-width="4" stroke-miterlimit="10" stroke-linecap="round" stroke-linejoin="round"/>
<path d="M269.238 207.42H178.853C173.58 207.42 169.267 203.106 169.267 197.834V11.5863C169.267 6.31382 173.58 2 178.853 2H269.238C274.51 2 278.824 6.31382 278.824 11.5863V197.834C278.824 203.106 274.51 207.42 269.238 207.42Z" fill="#E7E7E7"/>
<path opacity="0.28" d="M269.237 2H263.485C268.758 2 273.072 6.31382 273.072 11.5863V197.834C273.072 203.106 268.758 207.42 263.485 207.42H269.306C274.578 207.42 278.892 203.106 278.892 197.834V11.5863C278.823 6.24535 274.51 2 269.237 2Z" fill="#E7E7E7"/>
<path opacity="0.48" d="M174.95 197.834V11.5863C174.95 6.31382 179.264 2 184.536 2H178.853C173.58 2 169.267 6.31382 169.267 11.5863V197.834C169.267 203.106 173.58 207.42 178.853 207.42H184.536C179.264 207.42 174.95 203.106 174.95 197.834Z" fill="#E7E7E7"/>
<path d="M269.238 207.42H178.853C173.58 207.42 169.267 203.106 169.267 197.834V11.5863C169.267 6.31382 173.58 2 178.853 2H269.238C274.51 2 278.824 6.31382 278.824 11.5863V197.834C278.824 203.106 274.51 207.42 269.238 207.42Z" fill="#E7E7E7" stroke="white" stroke-width="4" stroke-miterlimit="10" stroke-linecap="round" stroke-linejoin="round"/>
<path d="M278.837 181.05V27.6693H169.279V181.05H278.837Z" fill="#E7E7E7"/>
<path d="M278.275 77.1153H269.716C265.06 77.1153 261.294 73.3493 261.294 68.6931V47.8087C261.294 43.1525 265.06 39.3865 269.716 39.3865H278.275V77.1153Z" fill="#E7E7E7"/>
<path d="M175.566 161.748H169.267V95.1238H175.566C180.291 95.1238 184.125 98.9583 184.125 103.683V153.189C184.057 157.914 180.291 161.748 175.566 161.748Z" fill="#E7E7E7"/>
<path d="M278.837 181.05V27.6693H169.279V181.05H278.837Z" fill="#E7E7E7" stroke="white" stroke-width="4" stroke-miterlimit="10" stroke-linecap="round" stroke-linejoin="round"/>
<path d="M239.11 15.6948H243.903H239.11Z" fill="#E7E7E7"/>
<path d="M239.11 15.6948H243.903" stroke="white" stroke-width="5" stroke-miterlimit="10" stroke-linecap="round" stroke-linejoin="round"/>
<path d="M204.188 15.6948H231.578H204.188Z" fill="#E7E7E7"/>
<path d="M204.188 15.6948H231.578" stroke="white" stroke-width="5" stroke-miterlimit="10" stroke-linecap="round" stroke-linejoin="round"/>
<path opacity="0.29" d="M224.046 200.162C228.206 200.162 231.578 196.79 231.578 192.63C231.578 188.47 228.206 185.098 224.046 185.098C219.886 185.098 216.514 188.47 216.514 192.63C216.514 196.79 219.886 200.162 224.046 200.162Z" fill="#E7E7E7"/>
<path d="M224.046 198.382C227.222 198.382 229.797 195.806 229.797 192.63C229.797 189.454 227.222 186.878 224.046 186.878C220.869 186.878 218.294 189.454 218.294 192.63C218.294 195.806 220.869 198.382 224.046 198.382Z" fill="#E7E7E7"/>
<g opacity="0.3">
<g opacity="0.3">
<g opacity="0.3">
<path opacity="0.3" d="M199.051 162.707H188.095C185.082 162.707 182.617 160.242 182.617 157.229V146.274C182.617 143.261 185.082 140.796 188.095 140.796H199.051C202.064 140.796 204.529 143.261 204.529 146.274V157.229C204.529 160.242 202.064 162.707 199.051 162.707Z" fill="#E7E7E7" stroke="white" stroke-width="2" stroke-linecap="round" stroke-linejoin="round" stroke-dasharray="4.08 4.08"/>
</g>
<g opacity="0.3">
<path opacity="0.3" d="M259.65 162.707H248.695C245.682 162.707 243.217 160.242 243.217 157.229V146.274C243.217 143.261 245.682 140.796 248.695 140.796H259.65C262.663 140.796 265.128 143.261 265.128 146.274V157.229C265.128 160.242 262.663 162.707 259.65 162.707Z" fill="#E7E7E7" stroke="white" stroke-width="2" stroke-linecap="round" stroke-linejoin="round" stroke-dasharray="4.08 4.08"/>
</g>
<g opacity="0.3">
<path opacity="0.3" d="M229.522 162.707H218.566C215.553 162.707 213.088 160.242 213.088 157.229V146.274C213.088 143.261 215.553 140.796 218.566 140.796H229.522C232.534 140.796 234.999 143.261 234.999 146.274V157.229C234.999 160.242 232.534 162.707 229.522 162.707Z" fill="#E7E7E7" stroke="white" stroke-width="2" stroke-linecap="round" stroke-linejoin="round" stroke-dasharray="4.08 4.08"/>
</g>
</g>
<g opacity="0.3">
<g opacity="0.3">
<path opacity="0.3" d="M199.051 129.84H188.095C185.082 129.84 182.617 127.375 182.617 124.362V113.406C182.617 110.393 185.082 107.928 188.095 107.928H199.051C202.064 107.928 204.529 110.393 204.529 113.406V124.362C204.529 127.375 202.064 129.84 199.051 129.84Z" fill="#E7E7E7" stroke="white" stroke-width="2" stroke-linecap="round" stroke-linejoin="round" stroke-dasharray="4.08 4.08"/>
</g>
<g opacity="0.3">
<path opacity="0.3" d="M259.65 129.84H248.695C245.682 129.84 243.217 127.375 243.217 124.362V113.406C243.217 110.393 245.682 107.928 248.695 107.928H259.65C262.663 107.928 265.128 110.393 265.128 113.406V124.362C265.128 127.375 262.663 129.84 259.65 129.84Z" fill="#E7E7E7" stroke="white" stroke-width="2" stroke-linecap="round" stroke-linejoin="round" stroke-dasharray="4.08 4.08"/>
</g>
<g opacity="0.3">
<path opacity="0.3" d="M229.522 129.84H218.566C215.553 129.84 213.088 127.375 213.088 124.362V113.406C213.088 110.393 215.553 107.928 218.566 107.928H229.522C232.534 107.928 234.999 110.393 234.999 113.406V124.362C234.999 127.375 232.534 129.84 229.522 129.84Z" fill="#E7E7E7" stroke="white" stroke-width="2" stroke-linecap="round" stroke-linejoin="round" stroke-dasharray="4.08 4.08"/>
</g>
</g>
<g opacity="0.3">
<g opacity="0.3">
<path opacity="0.3" d="M199.051 96.9726H188.095C185.082 96.9726 182.617 94.5076 182.617 91.4947V80.539C182.617 77.5261 185.082 75.0611 188.095 75.0611H199.051C202.064 75.0611 204.529 77.5261 204.529 80.539V91.4947C204.529 94.5076 202.064 96.9726 199.051 96.9726Z" fill="#E7E7E7" stroke="white" stroke-width="2" stroke-linecap="round" stroke-linejoin="round" stroke-dasharray="4.08 4.08"/>
</g>
<g opacity="0.3">
<path opacity="0.3" d="M259.65 96.9726H248.695C245.682 96.9726 243.217 94.5075 243.217 91.4947V80.539C243.217 77.5261 245.682 75.0611 248.695 75.0611H259.65C262.663 75.0611 265.128 77.5261 265.128 80.539V91.4947C265.128 94.5075 262.663 96.9726 259.65 96.9726Z" fill="#E7E7E7" stroke="white" stroke-width="2" stroke-linecap="round" stroke-linejoin="round" stroke-dasharray="4.08 4.08"/>
</g>
<g opacity="0.3">
<path opacity="0.3" d="M229.522 96.9726H218.566C215.553 96.9726 213.088 94.5076 213.088 91.4947V80.539C213.088 77.5261 215.553 75.0611 218.566 75.0611H229.522C232.534 75.0611 234.999 77.5261 234.999 80.539V91.4947C234.999 94.5076 232.534 96.9726 229.522 96.9726Z" fill="#E7E7E7" stroke="white" stroke-width="2" stroke-linecap="round" stroke-linejoin="round" stroke-dasharray="4.08 4.08"/>
</g>
</g>
<g opacity="0.3">
<g opacity="0.3">
<path opacity="0.3" d="M199.051 64.1053H188.095C185.082 64.1053 182.617 61.6402 182.617 58.6274V47.6717C182.617 44.6588 185.082 42.1938 188.095 42.1938H199.051C202.064 42.1938 204.529 44.6588 204.529 47.6717V58.6274C204.529 61.6402 202.064 64.1053 199.051 64.1053Z" fill="#E7E7E7" stroke="white" stroke-width="2" stroke-linecap="round" stroke-linejoin="round" stroke-dasharray="4.08 4.08"/>
</g>
<g opacity="0.3">
<path opacity="0.3" d="M259.65 64.1053H248.695C245.682 64.1053 243.217 61.6402 243.217 58.6274V47.6717C243.217 44.6588 245.682 42.1938 248.695 42.1938H259.65C262.663 42.1938 265.128 44.6588 265.128 47.6717V58.6274C265.128 61.6402 262.663 64.1053 259.65 64.1053Z" fill="#E7E7E7" stroke="white" stroke-width="2" stroke-linecap="round" stroke-linejoin="round" stroke-dasharray="4.08 4.08"/>
</g>
<g opacity="0.3">
<path opacity="0.3" d="M229.522 64.1053H218.566C215.553 64.1053 213.088 61.6402 213.088 58.6274V47.6717C213.088 44.6588 215.553 42.1938 218.566 42.1938H229.522C232.534 42.1938 234.999 44.6588 234.999 47.6717V58.6274C234.999 61.6402 232.534 64.1053 229.522 64.1053Z" fill="#E7E7E7" stroke="white" stroke-width="2" stroke-linecap="round" stroke-linejoin="round" stroke-dasharray="4.08 4.08"/>
</g>
</g>
</g>
<path d="M199.053 162.707H188.097C185.084 162.707 182.619 160.242 182.619 157.229V146.274C182.619 143.261 185.084 140.796 188.097 140.796H199.053C202.066 140.796 204.531 143.261 204.531 146.274V157.229C204.531 160.242 202.066 162.707 199.053 162.707Z" fill="#E7E7E7"/>
<path opacity="0.52" d="M199.052 140.796H188.096C185.905 140.796 183.988 142.097 183.166 143.945L204.53 147.78V146.274C204.53 143.261 202.065 140.796 199.052 140.796Z" fill="#E7E7E7"/>
<path d="M199.053 162.707H188.097C185.084 162.707 182.619 160.242 182.619 157.229V146.274C182.619 143.261 185.084 140.796 188.097 140.796H199.053C202.066 140.796 204.531 143.261 204.531 146.274V157.229C204.531 160.242 202.066 162.707 199.053 162.707Z" fill="#E7E7E7" stroke="white" stroke-width="4" stroke-miterlimit="10" stroke-linecap="round" stroke-linejoin="round"/>
<path d="M229.523 162.707H218.568C215.555 162.707 213.09 160.242 213.09 157.229V146.274C213.09 143.261 215.555 140.796 218.568 140.796H229.523C232.536 140.796 235.001 143.261 235.001 146.274V157.229C235.001 160.242 232.536 162.707 229.523 162.707Z" fill="#E7E7E7"/>
<path opacity="0.52" d="M229.523 140.796H218.567C216.376 140.796 214.458 142.097 213.637 143.945L235 147.78V146.274C235 143.261 232.535 140.796 229.523 140.796Z" fill="#E7E7E7"/>
<path d="M229.523 162.707H218.568C215.555 162.707 213.09 160.242 213.09 157.229V146.274C213.09 143.261 215.555 140.796 218.568 140.796H229.523C232.536 140.796 235.001 143.261 235.001 146.274V157.229C235.001 160.242 232.536 162.707 229.523 162.707Z" fill="#E7E7E7" stroke="white" stroke-width="4" stroke-miterlimit="10" stroke-linecap="round" stroke-linejoin="round"/>
<path d="M259.651 129.84H248.696C245.683 129.84 243.218 127.375 243.218 124.362V113.406C243.218 110.393 245.683 107.928 248.696 107.928H259.651C262.664 107.928 265.129 110.393 265.129 113.406V124.362C265.129 127.375 262.664 129.84 259.651 129.84Z" fill="#E7E7E7"/>
<path opacity="0.52" d="M259.651 107.928H248.696C246.505 107.928 244.587 109.229 243.766 111.078L265.129 114.912V113.406C265.129 110.393 262.664 107.928 259.651 107.928Z" fill="#E7E7E7"/>
<path d="M259.651 129.84H248.696C245.683 129.84 243.218 127.375 243.218 124.362V113.406C243.218 110.393 245.683 107.928 248.696 107.928H259.651C262.664 107.928 265.129 110.393 265.129 113.406V124.362C265.129 127.375 262.664 129.84 259.651 129.84Z" fill="#E7E7E7" stroke="white" stroke-width="4" stroke-miterlimit="10" stroke-linecap="round" stroke-linejoin="round"/>
<path d="M229.522 96.9725H218.567C215.554 96.9725 213.089 94.5075 213.089 91.4947V80.5389C213.089 77.5261 215.554 75.061 218.567 75.061H229.522C232.535 75.061 235 77.5261 235 80.5389V91.4947C235 94.5075 232.535 96.9725 229.522 96.9725Z" fill="#E7E7E7"/>
<path opacity="0.52" d="M229.523 75.061H218.567C216.376 75.061 214.458 76.362 213.637 78.2108L235 82.0453V80.5389C235 77.5261 232.535 75.061 229.523 75.061Z" fill="#E7E7E7"/>
<path d="M229.522 96.9726H218.567C215.554 96.9726 213.089 94.5076 213.089 91.4947V80.539C213.089 77.5262 215.554 75.0611 218.567 75.0611H229.522C232.535 75.0611 235 77.5262 235 80.539V91.4947C235 94.5076 232.535 96.9726 229.522 96.9726Z" fill="#E7E7E7" stroke="white" stroke-width="4" stroke-miterlimit="10" stroke-linecap="round" stroke-linejoin="round"/>
<path d="M252.393 114.091L258.693 117.72C259.583 118.268 259.583 119.569 258.693 120.048L252.393 123.677C251.503 124.225 250.339 123.54 250.339 122.513V115.255C250.339 114.228 251.503 113.543 252.393 114.091Z" fill="#E7E7E7"/>
<path d="M226.92 147.506H221.169C219.936 147.506 218.978 148.533 218.978 149.697V153.942C218.978 155.175 220.005 156.133 221.169 156.133H221.374L220.895 158.051C220.826 158.188 221.032 158.325 221.169 158.188L224.113 156.133H227.057C228.29 156.133 229.249 155.106 229.249 153.942V149.697C229.18 148.464 228.153 147.506 226.92 147.506Z" fill="#E7E7E7"/>
<path d="M189.329 151.751L191.863 154.285C192.205 154.627 192.753 154.627 193.095 154.285L198.778 148.602" fill="#E7E7E7"/>
<path d="M189.329 151.751L191.863 154.285C192.205 154.627 192.753 154.627 193.095 154.285L198.778 148.602" stroke="white" stroke-width="4" stroke-miterlimit="10" stroke-linecap="round" stroke-linejoin="round"/>
<path d="M224.045 91.1524C226.881 91.1524 229.18 88.853 229.18 86.0169C229.18 83.1807 226.881 80.8813 224.045 80.8813C221.209 80.8813 218.909 83.1807 218.909 86.0169C218.909 88.853 221.209 91.1524 224.045 91.1524Z" fill="#E7E7E7" stroke="white" stroke-width="4" stroke-miterlimit="10" stroke-linecap="round" stroke-linejoin="round"/>
<path d="M182.687 59.3122L182.55 49.0412L175.703 49.1097C175.292 47.8087 174.813 46.6447 174.128 45.4806L178.921 40.5505L171.594 33.3608L166.801 38.2909C165.637 37.6746 164.405 37.1953 163.104 36.853L163.035 30.0056L152.764 30.1425L152.833 36.9899C151.532 37.4007 150.368 37.8801 149.204 38.5648L144.273 33.7717L137.084 41.0983L142.014 45.8914C141.398 47.0555 140.918 48.288 140.576 49.589L133.729 49.6575L133.865 59.9285L140.713 59.86C141.124 61.161 141.603 62.3251 142.288 63.4891L137.495 68.4192L144.821 75.6089L149.614 70.6788C150.778 71.2951 152.011 71.7744 153.312 72.1168L153.38 78.9641L163.651 78.8271L163.583 71.9798C164.884 71.569 166.048 71.0897 167.212 70.4049L172.142 75.1981L179.332 67.8714L174.402 63.0783C175.018 61.9142 175.497 60.6817 175.84 59.3807L182.687 59.3122ZM158.379 62.462C153.928 62.5305 150.368 58.9699 150.299 54.5191C150.231 50.0683 153.791 46.5077 158.242 46.4392C162.693 46.3708 166.253 49.9314 166.322 54.3821C166.322 58.8329 162.761 62.3935 158.379 62.462Z" fill="#E7E7E7"/>
<path d="M182.687 59.3122L182.55 49.0412L175.703 49.1097C175.292 47.8087 174.813 46.6447 174.128 45.4806L178.921 40.5505L171.594 33.3608L166.801 38.2909C165.637 37.6746 164.405 37.1953 163.104 36.853L163.035 30.0056L152.764 30.1425L152.833 36.9899C151.532 37.4007 150.368 37.8801 149.204 38.5648L144.273 33.7717L137.084 41.0983L142.014 45.8914C141.398 47.0555 140.918 48.288 140.576 49.589L133.729 49.6575L133.865 59.9285L140.713 59.86C141.124 61.161 141.603 62.3251 142.288 63.4891L137.495 68.4192L144.821 75.6089L149.614 70.6788C150.778 71.2951 152.011 71.7744 153.312 72.1168L153.38 78.9641L163.651 78.8271L163.583 71.9798C164.884 71.569 166.048 71.0897 167.212 70.4049L172.142 75.1981L179.332 67.8714L174.402 63.0783C175.018 61.9142 175.497 60.6817 175.84 59.3807L182.687 59.3122ZM158.379 62.462C153.928 62.5305 150.368 58.9699 150.299 54.5191C150.231 50.0683 153.791 46.5077 158.242 46.4392C162.693 46.3708 166.253 49.9314 166.322 54.3821C166.322 58.8329 162.761 62.3935 158.379 62.462Z" fill="#E7E7E7"/>
<path d="M182.687 59.3122L182.55 49.0412L175.703 49.1097C175.292 47.8087 174.813 46.6447 174.128 45.4806L178.921 40.5505L171.594 33.3608L166.801 38.2909C165.637 37.6746 164.405 37.1953 163.104 36.853L163.035 30.0056L152.764 30.1425L152.833 36.9899C151.532 37.4007 150.368 37.8801 149.204 38.5648L144.273 33.7717L137.084 41.0983L142.014 45.8914C141.398 47.0555 140.918 48.288 140.576 49.589L133.729 49.6575L133.865 59.9285L140.713 59.86C141.124 61.161 141.603 62.3251 142.288 63.4891L137.495 68.4192L144.821 75.6089L149.614 70.6788C150.778 71.2951 152.011 71.7744 153.312 72.1168L153.38 78.9641L163.651 78.8271L163.583 71.9798C164.884 71.569 166.048 71.0897 167.212 70.4049L172.142 75.1981L179.332 67.8714L174.402 63.0783C175.018 61.9142 175.497 60.6817 175.84 59.3807L182.687 59.3122ZM158.379 62.462C153.928 62.5305 150.368 58.9699 150.299 54.5191C150.231 50.0683 153.791 46.5077 158.242 46.4392C162.693 46.3708 166.253 49.9314 166.322 54.3821C166.322 58.8329 162.761 62.3935 158.379 62.462Z" fill="#E7E7E7"/>
<g opacity="0.29">
<path opacity="0.29" d="M180.086 49.1095H182.619V49.041L180.086 49.1095Z" fill="#E7E7E7"/>
<path opacity="0.29" d="M171.184 38.3593L173.854 35.6203L171.663 33.4292L168.103 37.0583C169.198 37.4006 170.225 37.8115 171.184 38.3593Z" fill="#E7E7E7"/>
<path opacity="0.29" d="M162.488 46.4392C161.735 46.4392 161.05 46.5761 160.434 46.7131C163.789 47.6717 166.254 50.6845 166.254 54.3136C166.322 58.0112 163.789 61.1609 160.434 62.1196C161.118 62.325 161.94 62.4619 162.693 62.3935C167.144 62.325 170.636 58.6959 170.636 54.3136C170.636 49.9313 166.939 46.4392 162.488 46.4392Z" fill="#E7E7E7"/>
<path opacity="0.29" d="M152.286 37.1952L153.656 38.4962C154.82 37.8799 155.984 37.3321 157.285 36.9213L157.216 30.074L163.105 30.0055V29.937L152.834 30.074L152.902 36.9213C152.765 37.0583 152.492 37.1267 152.286 37.1952Z" fill="#E7E7E7"/>
<path opacity="0.29" d="M157.626 72.0481C156.325 71.7057 155.093 71.2264 153.929 70.6101L152.696 71.9111C152.902 71.9796 153.107 72.0481 153.313 72.1166L153.381 78.9639L157.695 78.8954L157.626 72.0481Z" fill="#E7E7E7"/>
<path opacity="0.29" d="M138.18 49.5889L145.027 49.5204C145.37 48.2194 145.849 46.9869 146.465 45.8228L141.535 41.0297L146.602 35.8942L144.411 33.703L137.221 41.0297L142.151 45.8228C141.535 46.9869 141.056 48.2194 140.714 49.5204L133.866 49.5889L134.003 59.8599L138.317 59.7914L138.18 49.5889Z" fill="#E7E7E7"/>
<path opacity="0.29" d="M171.526 70.4048C170.568 70.9526 169.609 71.3634 168.582 71.7058L172.143 75.1979L174.265 73.0068L171.526 70.4048Z" fill="#E7E7E7"/>
<path opacity="0.29" d="M141.877 68.2821L146.671 63.352C146.054 62.188 145.507 61.0239 145.096 59.7229L140.782 59.7914C141.193 61.0239 141.672 62.2564 142.288 63.352L137.495 68.2821L144.822 75.4718L146.944 73.2807L141.877 68.2821Z" fill="#E7E7E7"/>
</g>
<path d="M182.687 59.3122L182.55 49.0412L175.703 49.1097C175.292 47.8087 174.813 46.6447 174.128 45.4806L178.921 40.5505L171.594 33.3608L166.801 38.2909C165.637 37.6746 164.405 37.1953 163.104 36.853L163.035 30.0056L152.764 30.1425L152.833 36.9899C151.532 37.4007 150.368 37.8801 149.204 38.5648L144.273 33.7717L137.084 41.0983L142.014 45.8914C141.398 47.0555 140.918 48.288 140.576 49.589L133.729 49.6575L133.865 59.9285L140.713 59.86C141.124 61.161 141.603 62.3251 142.288 63.4891L137.495 68.4192L144.821 75.6089L149.614 70.6788C150.778 71.2951 152.011 71.7744 153.312 72.1168L153.38 78.9641L163.651 78.8271L163.583 71.9798C164.884 71.569 166.048 71.0897 167.212 70.4049L172.142 75.1981L179.332 67.8714L174.402 63.0783C175.018 61.9142 175.497 60.6817 175.84 59.3807L182.687 59.3122ZM158.379 62.462C153.928 62.5305 150.368 58.9699 150.299 54.5191C150.231 50.0683 153.791 46.5077 158.242 46.4392C162.693 46.3708 166.253 49.9314 166.322 54.3821C166.322 58.8329 162.761 62.3935 158.379 62.462Z" fill="#E7E7E7" stroke="white" stroke-width="4" stroke-miterlimit="10" stroke-linecap="round" stroke-linejoin="round"/>
<path d="M139.891 207.42H55.1891C52.3817 207.42 50.1221 205.161 50.1221 202.353V144.425C50.1221 141.617 52.3817 139.358 55.1891 139.358H139.959C142.767 139.358 145.026 141.617 145.026 144.425V202.353C144.958 205.161 142.698 207.42 139.891 207.42Z" fill="#E7E7E7"/>
<path d="M144.958 150.382H50.1221V144.425C50.1221 141.617 52.3817 139.358 55.1891 139.358H139.959C142.767 139.358 145.026 141.617 145.026 144.425V150.382H144.958Z" fill="#E7E7E7"/>
<path d="M139.891 207.42H55.1891C52.3817 207.42 50.1221 205.161 50.1221 202.353V144.425C50.1221 141.617 52.3817 139.358 55.1891 139.358H139.959C142.767 139.358 145.026 141.617 145.026 144.425V202.353C144.958 205.161 142.698 207.42 139.891 207.42Z" fill="#E7E7E7" stroke="white" stroke-width="4" stroke-miterlimit="10" stroke-linecap="round" stroke-linejoin="round"/>
<path d="M139.891 207.42H55.1891C52.3817 207.42 50.1221 205.161 50.1221 202.353V144.425C50.1221 141.617 52.3817 139.358 55.1891 139.358H139.959C142.767 139.358 145.026 141.617 145.026 144.425V202.353C144.958 205.161 142.698 207.42 139.891 207.42Z" fill="#E7E7E7" stroke="white" stroke-width="4" stroke-miterlimit="10" stroke-linecap="round" stroke-linejoin="round"/>
<path d="M144.958 150.382H50.1221V144.425C50.1221 141.617 52.3817 139.358 55.1891 139.358H139.959C142.767 139.358 145.026 141.617 145.026 144.425V150.382H144.958Z" fill="#E7E7E7" stroke="white" stroke-width="4" stroke-miterlimit="10" stroke-linecap="round" stroke-linejoin="round"/>
<path d="M63.2002 198.724H73.8821H63.2002Z" fill="#E7E7E7"/>
<path d="M63.2002 198.724H73.8821" stroke="white" stroke-width="4" stroke-miterlimit="10" stroke-linecap="round" stroke-linejoin="round"/>
<path d="M55.668 198.724H56.4212H55.668Z" fill="#E7E7E7"/>
<path d="M55.668 198.724H56.4212" stroke="white" stroke-width="4" stroke-miterlimit="10" stroke-linecap="round" stroke-linejoin="round"/>
<path d="M63.2002 192.835H90.2472H63.2002Z" fill="#E7E7E7"/>
<path d="M63.2002 192.835H90.2472" stroke="white" stroke-width="4" stroke-miterlimit="10" stroke-linecap="round" stroke-linejoin="round"/>
<path d="M55.668 192.835H56.4212H55.668Z" fill="#E7E7E7"/>
<path d="M55.668 192.835H56.4212" stroke="white" stroke-width="4" stroke-miterlimit="10" stroke-linecap="round" stroke-linejoin="round"/>
<path d="M103.12 186.878H110.515H103.12Z" fill="#E7E7E7"/>
<path d="M103.12 186.878H110.515" stroke="#D7D7D7" stroke-width="4" stroke-miterlimit="10" stroke-linecap="round" stroke-linejoin="round"/>
<path d="M82.9893 186.878H96.6839H82.9893Z" fill="#E7E7E7"/>
<path d="M82.9893 186.878H96.6839" stroke="white" stroke-width="4" stroke-miterlimit="10" stroke-linecap="round" stroke-linejoin="round"/>
<path d="M63.2002 186.878H76.7579H63.2002Z" fill="#E7E7E7"/>
<path d="M63.2002 186.878H76.7579" stroke="#D7D7D7" stroke-width="4" stroke-miterlimit="10" stroke-linecap="round" stroke-linejoin="round"/>
<path d="M55.668 186.878H56.4212H55.668Z" fill="#E7E7E7"/>
<path d="M55.668 186.878H56.4212" stroke="white" stroke-width="4" stroke-miterlimit="10" stroke-linecap="round" stroke-linejoin="round"/>
<path d="M86.001 180.99H119.005H86.001Z" fill="#E7E7E7"/>
<path d="M86.001 180.99H119.005" stroke="white" stroke-width="4" stroke-miterlimit="10" stroke-linecap="round" stroke-linejoin="round"/>
<path d="M63.2002 180.99H80.4555H63.2002Z" fill="#E7E7E7"/>
<path d="M63.2002 180.99H80.4555" stroke="#D7D7D7" stroke-width="4" stroke-miterlimit="10" stroke-linecap="round" stroke-linejoin="round"/>
<path d="M55.668 180.99H56.4212H55.668Z" fill="#E7E7E7"/>
<path d="M55.668 180.99H56.4212" stroke="white" stroke-width="4" stroke-miterlimit="10" stroke-linecap="round" stroke-linejoin="round"/>
<path d="M86.001 175.101H98.3262H86.001Z" fill="#E7E7E7"/>
<path d="M86.001 175.101H98.3262" stroke="#D7D7D7" stroke-width="4" stroke-miterlimit="10" stroke-linecap="round" stroke-linejoin="round"/>
<path d="M63.2002 175.101H80.4555H63.2002Z" fill="#E7E7E7"/>
<path d="M63.2002 175.101H80.4555" stroke="#D7D7D7" stroke-width="4" stroke-miterlimit="10" stroke-linecap="round" stroke-linejoin="round"/>
<path d="M55.668 175.101H56.4212H55.668Z" fill="#E7E7E7"/>
<path d="M55.668 175.101H56.4212" stroke="white" stroke-width="4" stroke-miterlimit="10" stroke-linecap="round" stroke-linejoin="round"/>
<path d="M88.3975 169.212H91.7527H88.3975Z" fill="#E7E7E7"/>
<path d="M88.3975 169.212H91.7527" stroke="#D7D7D7" stroke-width="4" stroke-miterlimit="10" stroke-linecap="round" stroke-linejoin="round"/>
<path d="M75.3877 169.212H82.9882H75.3877Z" fill="#E7E7E7"/>
<path d="M75.3877 169.212H82.9882" stroke="#D7D7D7" stroke-width="4" stroke-miterlimit="10" stroke-linecap="round" stroke-linejoin="round"/>
<path d="M63.2002 169.212H69.4997H63.2002Z" fill="#E7E7E7"/>
<path d="M63.2002 169.212H69.4997" stroke="#D7D7D7" stroke-width="4" stroke-miterlimit="10" stroke-linecap="round" stroke-linejoin="round"/>
<path d="M55.668 169.212H56.4212H55.668Z" fill="#E7E7E7"/>
<path d="M55.668 169.212H56.4212" stroke="white" stroke-width="4" stroke-miterlimit="10" stroke-linecap="round" stroke-linejoin="round"/>
<path d="M113.049 163.255H119.006H113.049Z" fill="#E7E7E7"/>
<path d="M113.049 163.255H119.006" stroke="#D7D7D7" stroke-width="4" stroke-miterlimit="10" stroke-linecap="round" stroke-linejoin="round"/>
<path d="M82.167 163.255H105.516H82.167Z" fill="#E7E7E7"/>
<path d="M82.167 163.255H105.516" stroke="#D7D7D7" stroke-width="4" stroke-miterlimit="10" stroke-linecap="round" stroke-linejoin="round"/>
<path d="M63.2002 163.255H77.1003H63.2002Z" fill="#E7E7E7"/>
<path d="M63.2002 163.255H77.1003" stroke="#D7D7D7" stroke-width="4" stroke-miterlimit="10" stroke-linecap="round" stroke-linejoin="round"/>
<path d="M55.668 163.255H56.4212H55.668Z" fill="#E7E7E7"/>
<path d="M55.668 163.255H56.4212" stroke="white" stroke-width="4" stroke-miterlimit="10" stroke-linecap="round" stroke-linejoin="round"/>
<path d="M98.3262 157.366H110.514H98.3262Z" fill="#E7E7E7"/>
<path d="M98.3262 157.366H110.514" stroke="#D7D7D7" stroke-width="4" stroke-miterlimit="10" stroke-linecap="round" stroke-linejoin="round"/>
<path d="M82.9893 157.366H92.4386H82.9893Z" fill="#E7E7E7"/>
<path d="M82.9893 157.366H92.4386" stroke="#D7D7D7" stroke-width="4" stroke-miterlimit="10" stroke-linecap="round" stroke-linejoin="round"/>
<path d="M72.7178 157.366H78.0587H72.7178Z" fill="#E7E7E7"/>
<path d="M72.7178 157.366H78.0587" stroke="#D7D7D7" stroke-width="4" stroke-miterlimit="10" stroke-linecap="round" stroke-linejoin="round"/>
<path d="M63.2002 157.366H67.5825H63.2002Z" fill="#E7E7E7"/>
<path d="M63.2002 157.366H67.5825" stroke="#D7D7D7" stroke-width="4" stroke-miterlimit="10" stroke-linecap="round" stroke-linejoin="round"/>
<path d="M55.668 157.366H56.4212H55.668Z" fill="#E7E7E7"/>
<path d="M55.668 157.366H56.4212" stroke="white" stroke-width="4" stroke-miterlimit="10" stroke-linecap="round" stroke-linejoin="round"/>
<path d="M59.5029 146.616C60.4485 146.616 61.2147 145.85 61.2147 144.904C61.2147 143.959 60.4485 143.192 59.5029 143.192C58.5572 143.192 57.791 143.959 57.791 144.904C57.791 145.85 58.5572 146.616 59.5029 146.616Z" fill="#E7E7E7"/>
<path d="M65.665 146.616C66.6106 146.616 67.3768 145.85 67.3768 144.904C67.3768 143.959 66.6106 143.192 65.665 143.192C64.7193 143.192 63.9531 143.959 63.9531 144.904C63.9531 145.85 64.7193 146.616 65.665 146.616Z" fill="#E7E7E7"/>
<path d="M71.8964 146.616C72.842 146.616 73.6083 145.85 73.6083 144.904C73.6083 143.959 72.842 143.192 71.8964 143.192C70.9508 143.192 70.1846 143.959 70.1846 144.904C70.1846 145.85 70.9508 146.616 71.8964 146.616Z" fill="#E7E7E7"/>
<path d="M173.648 156.408H112.296C109.283 156.408 106.818 153.943 106.818 150.93V95.5347C106.818 92.5219 109.283 90.0569 112.296 90.0569H173.648C176.661 90.0569 179.126 92.5219 179.126 95.5347V150.93C179.126 153.943 176.661 156.408 173.648 156.408Z" fill="#E7E7E7"/>
<path d="M173.648 156.408H112.296C109.283 156.408 106.818 153.943 106.818 150.93V95.5347C106.818 92.5219 109.283 90.0569 112.296 90.0569H173.648C176.661 90.0569 179.126 92.5219 179.126 95.5347V150.93C179.126 153.943 176.661 156.408 173.648 156.408Z" fill="#E7E7E7"/>
<path d="M173.648 156.408H112.296C109.283 156.408 106.818 153.943 106.818 150.93V95.5347C106.818 92.5219 109.283 90.0569 112.296 90.0569H173.648C176.661 90.0569 179.126 92.5219 179.126 95.5347V150.93C179.126 153.943 176.661 156.408 173.648 156.408Z" fill="#E7E7E7" stroke="white" stroke-width="4" stroke-miterlimit="10" stroke-linecap="round" stroke-linejoin="round"/>
<path d="M172.484 95.6716H113.049V135.181H172.484V95.6716Z" fill="#E7E7E7"/>
<path d="M172.484 95.6716H113.049V135.181H172.484V95.6716Z" fill="#E7E7E7" stroke="white" stroke-width="4" stroke-miterlimit="10" stroke-linecap="round" stroke-linejoin="round"/>
<path d="M113.049 141.48H150.572H113.049Z" fill="#E7E7E7"/>
<path d="M113.049 141.48H150.572" stroke="white" stroke-width="4" stroke-miterlimit="10" stroke-linecap="round" stroke-linejoin="round"/>
<path d="M113.049 147.78H135.234H113.049Z" fill="#E7E7E7"/>
<path d="M113.049 147.78H135.234" stroke="white" stroke-width="4" stroke-miterlimit="10" stroke-linecap="round" stroke-linejoin="round"/>
<path d="M119.007 128.128L131.811 115.46L143.726 127.375" fill="#E7E7E7"/>
<path d="M119.007 128.128L131.811 115.46L143.726 127.375" stroke="white" stroke-width="4" stroke-miterlimit="10" stroke-linecap="round" stroke-linejoin="round"/>
<path d="M166.048 128.128L150.573 107.928L138.18 121.76" fill="#E7E7E7"/>
<path d="M166.048 128.128L150.573 107.928L138.18 121.76" stroke="white" stroke-width="4" stroke-miterlimit="10" stroke-linecap="round" stroke-linejoin="round"/>
<path d="M165.911 147.711C167.764 147.711 169.266 146.209 169.266 144.356C169.266 142.503 167.764 141.001 165.911 141.001C164.058 141.001 162.556 142.503 162.556 144.356C162.556 146.209 164.058 147.711 165.911 147.711Z" fill="#E7E7E7" stroke="white" stroke-width="4" stroke-miterlimit="10" stroke-linecap="round" stroke-linejoin="round"/>
<path d="M135.577 112.174C137.922 112.174 139.823 110.273 139.823 107.928C139.823 105.584 137.922 103.683 135.577 103.683C133.233 103.683 131.332 105.584 131.332 107.928C131.332 110.273 133.233 112.174 135.577 112.174Z" fill="#E7E7E7"/>
<path d="M135.577 112.174C137.922 112.174 139.823 110.273 139.823 107.928C139.823 105.584 137.922 103.683 135.577 103.683C133.233 103.683 131.332 105.584 131.332 107.928C131.332 110.273 133.233 112.174 135.577 112.174Z" fill="#E7E7E7" stroke="white" stroke-width="4" stroke-miterlimit="10" stroke-linecap="round" stroke-linejoin="round"/>
<path d="M105.655 70.5419H124.006H105.655Z" fill="#E7E7E7"/>
<path d="M105.655 70.5419H124.006" stroke="white" stroke-width="4" stroke-miterlimit="10" stroke-linecap="round" stroke-linejoin="round"/>
<path d="M95.8633 70.5419H100.725H95.8633Z" fill="#E7E7E7"/>
<path d="M95.8633 70.5419H100.725" stroke="white" stroke-width="4" stroke-miterlimit="10" stroke-linecap="round" stroke-linejoin="round"/>
<path d="M114.83 62.0512H124.006H114.83Z" fill="#E7E7E7"/>
<path d="M114.83 62.0512H124.006" stroke="white" stroke-width="4" stroke-miterlimit="10" stroke-linecap="round" stroke-linejoin="round"/>
<path d="M107.436 62.0512H110.174H107.436Z" fill="#E7E7E7"/>
<path d="M107.436 62.0512H110.174" stroke="white" stroke-width="4" stroke-miterlimit="10" stroke-linecap="round" stroke-linejoin="round"/>
<path d="M85.7979 124.225H100.109H85.7979Z" fill="#E7E7E7"/>
<path d="M85.7979 124.225H100.109" stroke="white" stroke-width="4" stroke-miterlimit="10" stroke-linecap="round" stroke-linejoin="round"/>
<path d="M78.1973 124.225H81.9633H78.1973Z" fill="#E7E7E7"/>
<path d="M78.1973 124.225H81.9633" stroke="white" stroke-width="4" stroke-miterlimit="10" stroke-linecap="round" stroke-linejoin="round"/>
<path d="M94.2881 115.734H100.108H94.2881Z" fill="#E7E7E7"/>
<path d="M94.2881 115.734H100.108" stroke="white" stroke-width="4" stroke-miterlimit="10" stroke-linecap="round" stroke-linejoin="round"/>
<path d="M87.167 115.734H89.3581H87.167Z" fill="#E7E7E7"/>
<path d="M87.167 115.734H89.3581" stroke="white" stroke-width="4" stroke-miterlimit="10" stroke-linecap="round" stroke-linejoin="round"/>
<path d="M314.019 24.8701H327.576H314.019Z" fill="#E7E7E7"/>
<path d="M314.019 24.8701H327.576" stroke="white" stroke-width="4" stroke-miterlimit="10" stroke-linecap="round" stroke-linejoin="round"/>
<path d="M305.665 24.87H309.5H305.665Z" fill="#E7E7E7"/>
<path d="M305.665 24.87H309.5" stroke="white" stroke-width="4" stroke-miterlimit="10" stroke-linecap="round" stroke-linejoin="round"/>
<path d="M321.756 16.3794H327.576H321.756Z" fill="#E7E7E7"/>
<path d="M321.756 16.3794H327.576" stroke="white" stroke-width="4" stroke-miterlimit="10" stroke-linecap="round" stroke-linejoin="round"/>
<path d="M314.704 16.3794H316.827H314.704Z" fill="#E7E7E7"/>
<path d="M314.704 16.3794H316.827" stroke="white" stroke-width="4" stroke-miterlimit="10" stroke-linecap="round" stroke-linejoin="round"/>
<path d="M324.564 72.733H271.018C267.731 72.733 265.129 70.0625 265.129 66.8443V40.8929C265.129 37.6061 267.799 35.0042 271.018 35.0042H324.564C327.851 35.0042 330.453 37.6746 330.453 40.8929V66.7758C330.453 70.0625 327.851 72.733 324.564 72.733Z" fill="#E7E7E7"/>
<path d="M324.564 72.733H271.018C267.731 72.733 265.129 70.0625 265.129 66.8443V40.8929C265.129 37.6061 267.799 35.0042 271.018 35.0042H324.564C327.851 35.0042 330.453 37.6746 330.453 40.8929V66.7758C330.453 70.0625 327.851 72.733 324.564 72.733Z" fill="#E7E7E7" stroke="white" stroke-width="3" stroke-miterlimit="10" stroke-linecap="round" stroke-linejoin="round"/>
<g opacity="0.56">
<path d="M297.791 45.1382H320.935H297.791Z" fill="#E7E7E7"/>
<path d="M297.791 45.1382H320.935" stroke="white" stroke-width="3" stroke-miterlimit="10" stroke-linecap="round" stroke-linejoin="round"/>
</g>
<g opacity="0.56">
<path d="M297.791 52.6018H313.129H297.791Z" fill="#E7E7E7"/>
<path d="M297.791 52.6018H313.129" stroke="white" stroke-width="3" stroke-miterlimit="10" stroke-linecap="round" stroke-linejoin="round"/>
</g>
<g opacity="0.56">
<path opacity="0.56" d="M309.431 63.7631H300.119C298.886 63.7631 297.859 62.736 297.859 61.5035C297.859 60.2709 298.886 59.2438 300.119 59.2438H309.431C310.664 59.2438 311.691 60.2709 311.691 61.5035C311.691 62.736 310.732 63.7631 309.431 63.7631Z" fill="#E7E7E7"/>
<path opacity="0.56" d="M309.431 63.7631H300.119C298.886 63.7631 297.859 62.736 297.859 61.5035C297.859 60.2709 298.886 59.2438 300.119 59.2438H309.431C310.664 59.2438 311.691 60.2709 311.691 61.5035C311.691 62.736 310.732 63.7631 309.431 63.7631Z" fill="#E7E7E7" stroke="white" stroke-width="3" stroke-miterlimit="10" stroke-linecap="round" stroke-linejoin="round"/>
</g>
<path d="M288.136 64.1054H275.879C274.099 64.1054 272.729 62.6675 272.729 60.9557V46.6447C272.729 44.8644 274.167 43.4949 275.879 43.4949H288.136C289.916 43.4949 291.286 44.9329 291.286 46.6447V60.9557C291.286 62.6675 289.916 64.1054 288.136 64.1054Z" fill="#E7E7E7" stroke="white" stroke-width="3" stroke-miterlimit="10" stroke-linecap="round" stroke-linejoin="round"/>
<path d="M282.042 54.7247C283.857 54.7247 285.328 53.2532 285.328 51.4379C285.328 49.6227 283.857 48.1512 282.042 48.1512C280.226 48.1512 278.755 49.6227 278.755 51.4379C278.755 53.2532 280.226 54.7247 282.042 54.7247Z" fill="#E7E7E7" stroke="white" stroke-width="3" stroke-miterlimit="10" stroke-linecap="round" stroke-linejoin="round"/>
<path d="M275.811 63.7631C275.811 60.3395 278.618 57.532 282.042 57.532C285.465 57.532 288.273 60.3395 288.273 63.7631" fill="#E7E7E7"/>
<path d="M275.811 63.7631C275.811 60.3395 278.618 57.532 282.042 57.532C285.465 57.532 288.273 60.3395 288.273 63.7631" stroke="white" stroke-width="3" stroke-miterlimit="10" stroke-linecap="round" stroke-linejoin="round"/>
</svg>
