<svg width="43" height="44" viewBox="0 0 43 44" fill="none" xmlns="http://www.w3.org/2000/svg">
<circle cx="21.5" cy="22" r="21.5" fill="#028DE9"/>
<path d="M29 17.5V15.5H27V13.5H29V11.5H31V13.5H33V15.5H31V17.5H29ZM21 28C22.25 28 23.3127 27.5623 24.188 26.687C25.0633 25.8117 25.5007 24.7493 25.5 23.5C25.5 22.25 25.0623 21.1873 24.187 20.312C23.3117 19.4367 22.2493 18.9993 21 19C19.75 19 18.6873 19.4377 17.812 20.313C16.9367 21.1883 16.4993 22.2507 16.5 23.5C16.5 24.75 16.9377 25.8127 17.813 26.688C18.6883 27.5633 19.7507 28.0007 21 28ZM21 26C20.3 26 19.7083 25.7583 19.225 25.275C18.7417 24.7917 18.5 24.2 18.5 23.5C18.5 22.8 18.7417 22.2083 19.225 21.725C19.7083 21.2417 20.3 21 21 21C21.7 21 22.2917 21.2417 22.775 21.725C23.2583 22.2083 23.5 22.8 23.5 23.5C23.5 24.2 23.2583 24.7917 22.775 25.275C22.2917 25.7583 21.7 26 21 26ZM13 31.5C12.45 31.5 11.979 31.304 11.587 30.912C11.195 30.52 10.9993 30.0493 11 29.5V17.5C11 16.95 11.196 16.479 11.588 16.087C11.98 15.695 12.4507 15.4993 13 15.5H16.15L18 13.5H25V17.5H27V19.5H31V29.5C31 30.05 30.804 30.521 30.412 30.913C30.02 31.305 29.5493 31.5007 29 31.5H13Z" fill="white"/>
</svg>
