<svg width="200" height="200" viewBox="0 0 200 200" fill="none" xmlns="http://www.w3.org/2000/svg">
<circle cx="100" cy="100" r="100" fill="#605F5F" fill-opacity="0.1"/>
<path d="M137.5 91.6667V87.5L112.5 62.5H70.8333C66.2083 62.5 62.5 66.2083 62.5 70.8333V129.167C62.5 131.377 63.378 133.496 64.9408 135.059C66.5036 136.622 68.6232 137.5 70.8333 137.5H95.8333V129.708L130.792 94.75C132.625 92.9167 134.958 91.9167 137.5 91.6667ZM108.333 68.75L131.25 91.6667H108.333V68.75ZM145.208 109.125L141.125 113.208L132.625 104.708L136.708 100.625C137.5 99.7917 138.875 99.7917 139.708 100.625L145.208 106.125C146.042 106.958 146.042 108.333 145.208 109.125ZM129.708 107.625L138.208 116.125L112.667 141.667H104.167V133.167L129.708 107.625Z" fill="#605F5F"/>
</svg>
