<svg width="166" height="40" viewBox="0 0 166 40" fill="none" xmlns="http://www.w3.org/2000/svg">
<path d="M54.4654 15.3966C54.7583 15.3966 55.0729 15.4074 55.3876 15.4397C55.7131 15.4721 55.9952 15.5153 56.2447 15.5692L55.9626 17.63C55.7239 17.5653 55.4527 17.5221 55.1597 17.4789C54.8668 17.4466 54.5847 17.425 54.3243 17.425C53.7276 17.425 53.1743 17.5437 52.6535 17.781C52.1327 18.0184 51.6662 18.3529 51.2756 18.7953C50.885 19.2376 50.5703 19.7663 50.3533 20.3813C50.1255 20.9963 50.017 21.6868 50.017 22.4421V30.2968H47.7711V15.6663H49.6264L49.8651 18.3637H49.9628C50.2665 17.8242 50.6354 17.3279 51.0694 16.8747C51.5034 16.4216 52.0025 16.0655 52.5667 15.7958C53.1309 15.526 53.771 15.3966 54.4654 15.3966Z" fill="#282828"/>
<path d="M64.6966 15.3966C65.9552 15.3966 67.0293 15.6771 67.919 16.2274C68.8086 16.7776 69.503 17.5545 69.9804 18.5471C70.4578 19.5397 70.6965 20.705 70.6965 22.0321V23.4132H60.5195C60.5412 25.1287 60.9752 26.445 61.8106 27.3405C62.646 28.236 63.8178 28.6892 65.3367 28.6892C66.2698 28.6892 67.0944 28.6029 67.8105 28.4303C68.5265 28.2576 69.2752 28.0095 70.0455 27.6858V29.6387C69.2969 29.9732 68.5699 30.2105 67.8322 30.3616C67.1052 30.5126 66.2373 30.5882 65.2499 30.5882C63.8395 30.5882 62.6026 30.2968 61.5502 29.725C60.4978 29.1532 59.6841 28.3008 59.0982 27.1895C58.5123 26.0782 58.2194 24.7079 58.2194 23.1003C58.2194 21.525 58.4906 20.1547 59.0222 19.0003C59.5539 17.8458 60.3133 16.961 61.279 16.3353C62.2337 15.7095 63.3838 15.3966 64.6966 15.3966ZM64.6641 17.2092C63.4706 17.2092 62.5267 17.5976 61.8106 18.3745C61.1054 19.1513 60.6822 20.2303 60.552 21.6221H68.353C68.3421 20.7482 68.2119 19.9821 67.9407 19.3132C67.6803 18.6442 67.2788 18.1371 66.7364 17.7595C66.2047 17.4034 65.5103 17.2092 64.6641 17.2092Z" fill="#282828"/>
<path d="M81.0362 17.4034H77.369V30.3184H75.134V17.4034H72.53V16.3353L75.134 15.6016V14.6305C75.134 13.4005 75.3184 12.3971 75.6873 11.6311C76.0562 10.865 76.5878 10.2932 77.2822 9.92632C77.9766 9.55947 78.8337 9.37605 79.8319 9.37605C80.396 9.37605 80.9168 9.43 81.3834 9.52711C81.8499 9.62421 82.273 9.73211 82.6311 9.86158L82.056 11.6095C81.7522 11.5124 81.4051 11.4153 81.0253 11.3397C80.6456 11.2534 80.255 11.2103 79.8644 11.2103C79.0181 11.2103 78.3889 11.48 77.9766 12.0303C77.5643 12.5805 77.369 13.4329 77.369 14.5982V15.6663H81.0362V17.4034Z" fill="#282828"/>
<path d="M89.4122 15.3966C90.6708 15.3966 91.7449 15.6771 92.6345 16.2274C93.5351 16.7776 94.2186 17.5545 94.696 18.5471C95.1734 19.5397 95.4121 20.705 95.4121 22.0321V23.4132H85.2351C85.2568 25.1287 85.6908 26.445 86.5262 27.3405C87.3616 28.236 88.5334 28.6892 90.0523 28.6892C90.9854 28.6892 91.81 28.6029 92.526 28.4303C93.2421 28.2576 93.9907 28.0095 94.7611 27.6858V29.6387C94.0124 29.9732 93.2855 30.2105 92.5477 30.3616C91.81 30.5126 90.9528 30.5882 89.9655 30.5882C88.5551 30.5882 87.3182 30.2968 86.2658 29.725C85.2134 29.1532 84.3996 28.3008 83.8138 27.1895C83.2279 26.0782 82.9349 24.7079 82.9349 23.1003C82.9349 21.525 83.2062 20.1547 83.7378 19.0003C84.2694 17.8458 85.0289 16.961 85.9945 16.3353C86.9602 15.7095 88.0994 15.3966 89.4122 15.3966ZM89.3905 17.2092C88.197 17.2092 87.2531 17.5976 86.537 18.3745C85.8318 19.1513 85.4087 20.2303 85.2785 21.6221H93.0794C93.0685 20.7482 92.9383 19.9821 92.6671 19.3132C92.4067 18.6442 92.0053 18.1371 91.4628 17.7595C90.9203 17.4034 90.2259 17.2092 89.3905 17.2092Z" fill="#282828"/>
<path d="M105.893 15.3966C106.186 15.3966 106.5 15.4074 106.815 15.4397C107.141 15.4721 107.423 15.5153 107.672 15.5692L107.39 17.63C107.151 17.5653 106.88 17.5221 106.587 17.4789C106.294 17.4466 106.012 17.425 105.752 17.425C105.155 17.425 104.602 17.5437 104.081 17.781C103.56 18.0184 103.094 18.3529 102.703 18.7953C102.312 19.2376 101.998 19.7663 101.781 20.3813C101.553 20.9963 101.444 21.6868 101.444 22.4421V30.2968H99.1986V15.6663H101.054L101.293 18.3637H101.39C101.694 17.8242 102.063 17.3279 102.497 16.8747C102.931 16.4216 103.43 16.0655 103.994 15.7958C104.558 15.526 105.198 15.3966 105.893 15.3966Z" fill="#282828"/>
<path d="M114.345 30.3184H110.244V9.51631H114.345V30.3184Z" fill="#282828"/>
<path d="M120.703 9.51631C121.31 9.51631 121.831 9.65658 122.276 9.9371C122.71 10.2176 122.938 10.7463 122.938 11.5124C122.938 12.2676 122.721 12.7963 122.276 13.0876C121.842 13.3789 121.31 13.5192 120.703 13.5192C120.084 13.5192 119.552 13.3789 119.119 13.0876C118.685 12.7963 118.468 12.2784 118.468 11.5124C118.468 10.7463 118.685 10.2176 119.119 9.9371C119.563 9.65658 120.084 9.51631 120.703 9.51631ZM122.753 15.3642V30.3184H118.652V15.3642H122.753Z" fill="#282828"/>
<path d="M135.589 15.0836C137.194 15.0836 138.485 15.5152 139.462 16.3891C140.438 17.263 140.927 18.6549 140.927 20.5646V30.3075H136.825V21.5788C136.825 20.5107 136.63 19.7015 136.24 19.162C135.849 18.6225 135.241 18.342 134.406 18.342C133.147 18.342 132.29 18.7628 131.835 19.6152C131.379 20.4675 131.151 21.6867 131.151 23.2728V30.3075H127.05V15.3641H130.185L130.739 17.2738H130.967C131.292 16.7559 131.694 16.3352 132.171 16.0223C132.648 15.6986 133.18 15.4612 133.766 15.3102C134.352 15.1591 134.959 15.0836 135.589 15.0836Z" fill="#282828"/>
<path d="M149.248 9.51631V18.8168C149.248 19.3779 149.226 19.9389 149.183 20.5C149.14 21.061 149.085 21.6221 149.031 22.1832H149.085C149.368 21.7947 149.65 21.4063 149.943 21.0179C150.235 20.6295 150.55 20.2626 150.876 19.9066L155.085 15.3642H159.707L153.74 21.8487L160.076 30.3076H155.346L151.017 24.2547L149.259 25.6574V30.3076H145.158V9.51631H149.248Z" fill="#282828"/>
<path d="M17.3161 31.6347H13.2474C8.33252 31.6347 4.33984 27.6534 4.33984 22.7658C4.33984 17.8782 8.34337 13.8968 13.2583 13.8968H17.3595C17.9887 13.8968 18.5095 14.4039 18.5095 15.0405C18.5095 15.6663 17.9996 16.1842 17.3595 16.1842H13.2474C9.60193 16.1842 6.62912 19.1405 6.62912 22.7658C6.62912 26.391 9.60193 29.3474 13.2474 29.3474H17.3161C17.9453 29.3474 18.4661 29.8545 18.4661 30.491C18.4661 31.1276 17.9453 31.6347 17.3161 31.6347Z" fill="#007FDB"/>
<path d="M31.6484 31.6347H27.7209C27.0916 31.6347 26.5708 31.1276 26.5708 30.491C26.5708 29.8545 27.0807 29.3474 27.7209 29.3474H31.6484C35.2939 29.3474 38.2667 26.391 38.2667 22.7658C38.2667 19.1405 35.2939 16.1842 31.6484 16.1842H27.6232C26.9939 16.1842 26.4731 15.6771 26.4731 15.0405C26.4731 14.4147 26.9831 13.8968 27.6232 13.8968H31.6484C36.5633 13.8968 40.5669 17.8782 40.5669 22.7658C40.5669 27.6534 36.5633 31.6347 31.6484 31.6347Z" fill="#007FDB"/>
<path d="M29.6739 23.9095H15.2221C14.5928 23.9095 14.072 23.4024 14.072 22.7658C14.072 22.14 14.582 21.6221 15.2221 21.6221H29.663C30.2923 21.6221 30.8131 22.1292 30.8131 22.7658C30.8239 23.4024 30.3031 23.9095 29.6739 23.9095Z" fill="#007FDB"/>
</svg>
