<svg width="66" height="65" viewBox="0 0 66 65" fill="none" xmlns="http://www.w3.org/2000/svg">
<path fill-rule="evenodd" clip-rule="evenodd" d="M60.0837 32.5C60.0837 17.5419 47.9585 5.41669 33.0003 5.41669C18.0422 5.41669 5.91699 17.5419 5.91699 32.5C5.91699 47.4581 18.0422 59.5834 33.0003 59.5834C47.9585 59.5834 60.0837 47.4581 60.0837 32.5ZM33.0003 16.9271C33.539 16.9271 34.0557 17.1411 34.4366 17.522C34.8176 17.903 35.0316 18.4196 35.0316 18.9584V35.2084C35.0316 35.7471 34.8176 36.2637 34.4366 36.6447C34.0557 37.0256 33.539 37.2396 33.0003 37.2396C32.4616 37.2396 31.9449 37.0256 31.564 36.6447C31.1831 36.2637 30.9691 35.7471 30.9691 35.2084V18.9584C30.9691 18.4196 31.1831 17.903 31.564 17.522C31.9449 17.1411 32.4616 16.9271 33.0003 16.9271ZM33.0003 46.0417C33.7186 46.0417 34.4075 45.7563 34.9154 45.2484C35.4233 44.7405 35.7087 44.0516 35.7087 43.3334C35.7087 42.6151 35.4233 41.9262 34.9154 41.4183C34.4075 40.9104 33.7186 40.625 33.0003 40.625C32.282 40.625 31.5932 40.9104 31.0852 41.4183C30.5773 41.9262 30.292 42.6151 30.292 43.3334C30.292 44.0516 30.5773 44.7405 31.0852 45.2484C31.5932 45.7563 32.282 46.0417 33.0003 46.0417Z" fill="#028DE9"/>
</svg>
